<?xml version="1.0" encoding="utf-8"?>
<svg version="1.1" id="base_layer" xmlns="http://www.w3.org/2000/svg" xmlns:xlink="http://www.w3.org/1999/xlink" 
width="842.4687196649" y="246.77804104277" viewBox="0.0,0.0,842.4687196649,246.77804104277" style="background:white;"  xml:space="preserve">

<style type="text/css">
	.st0{fill:none;stroke:black;stroke-width:1;stroke-miterlimit:10;}
</style>

<style type="text/css">
	.st1{fill:none;stroke:purple;stroke-width:1.5;stroke-miterlimit:10;stroke-dasharray:5;}
</style>

<g>
	<!-- Vehicle trajectory -->
	<path id = "trajectory" class="st0" d="M 100.0,146.77804104277, L 100.0,146.77804104277  100.00120102690693,146.77804104277  100.00883074941895,146.77804104277  100.02654414686599,146.77804104277  100.05610625938245,146.77804104277  100.09815810131845,146.77803767751527  100.1530362831133,146.7780276781764  100.2211062715328,146.778013620128  100.302737864289,146.77799862625685  100.3982241927633,146.77798043806237  100.5077654071607,146.77795428441223  100.6314767535638,146.7779215141294  100.7694047587338,146.7778845580577  100.9215573904119,146.7778401677078  101.087942421674,146.77778228255158  101.268571846234,146.7777121994139  101.463458861962,146.77763328485807  101.672615305308,146.77754329605054  101.896049806484,146.77743537330622  102.133768128062,146.77731064303413  102.385774792049,146.77717307234025  102.652074249444,146.77702057504533  102.932671658403,146.77684510107093  103.227571822196,146.77664699828262  103.536778743369,146.77643032719772  103.86029516807,146.77619305898915  104.198123367746,146.7759258597742  104.550264969465,146.77562870879783  104.916721500974,146.77530649791822  105.297494474552,146.77495787524842  105.692585761282,146.77457254501547  106.101996913779,146.77415005668183  106.525729268142,146.77369559911662  106.963783853556,146.77320787427823  107.416161799646,146.77267517245465  107.882863902417,146.7720965392847  108.363890860048,146.77147773061876  108.859243194524,146.77081779504738  109.36892158626,146.7701037525018  109.892926443839,146.76933414690444  110.43125811244,146.76851519624267  110.98391678119,146.76764604310517  111.55090279673,146.7667120240112  112.13221627216,146.7657108987456  112.72785729251,146.764649326844  113.33782580462,146.76352670289646  113.96212189671,146.76232684031416  114.60074544432,146.76104684910734  115.25369631206,146.75969393166025  115.92097424579,146.758267789493  116.60257911555,146.75675073812758  117.29851061041,146.75513914504086  118.00876842274,146.75344060644238  118.73335213944,146.75165501410956  119.47226144897999,146.74976318711504  120.22549588404999,146.7477607441116  120.99305498993999,146.74565565273159  121.77493821695,146.7434479820649  122.57114509382001,146.7411170922473  123.38167501833,146.73865781851998  124.20652741023,146.73607840374285  125.04570160156,146.73337899546866  125.89919697916,146.73053746681487  126.76701282269,146.72754782542327  127.64914844307,146.72441853249077  128.54560306833,146.72114977756948  129.45637595736,146.717717978197  130.38146628446,146.71411631459677  131.32087326514,146.7103534161274  132.27459603484,146.70642945015717  133.24263373498,146.7023193663316  134.22498544452,146.69801549015858  135.22165029436002,146.69352655848695  136.23262733669,146.68885265190676  137.25791560294,146.6839672438427  138.29751408467,146.678861793871  139.35142183672,146.67354510328101  140.41963783532,146.66801711010322  141.50216092203,146.6622498044801  142.59898817926,146.6562338018158  143.71011333645,146.6499779692485  144.83552791804,146.6434820856157  145.97522244252,146.6367166587725  147.12918709723,146.6296714017723  148.29741194623,146.6223551503875  149.47988671826,146.6147674575414  150.67660075037,146.6068773884535  151.88754322763,146.59867386475082  153.11270335598,146.590165786132  154.35207024128,146.5813524935743  155.60563283464,146.5722015402155  156.87338014904,146.5627008629099  158.15530130708999,146.552859142962  159.45138532173002,146.5426752696263  160.76162099625,146.53211522969832  162.085997221,146.5211660839612  163.42450303489,146.50983645895911  164.77712738491,146.4981249209348  166.14385898694,146.48599597191782  167.5246866755,146.4734358020664  168.91959945025002,146.4604529134144  170.32858620439998,146.4470454558459  171.75163555861002,146.43317639690122  173.18873628712998,146.4188310239527  174.6398773585,146.4040176596862  176.10504762774002,146.3887339695833  177.58423563295,146.37294135937822  179.07743009569998,146.3566242099644  180.58461995384,146.3397906497531  182.10579401497,146.3224378406326  183.64094072058,146.3045256363529  185.19004873167,146.286037517893  186.75310695651,146.266981386523  188.33010416009,146.24735384542691  189.92102868997,146.2271131724332  191.52586914967,146.2062419398551  193.1446144203,146.1847477962172  194.77725322224,146.16262675372892  196.42377380265998,146.1398355154389  198.08416470447,146.1163557504068  199.75841477931,146.0921948289213  201.4465127009,146.0673481345893  203.1484466056,146.0417707482893  204.8642049765,146.0154434239507  206.5937766407,145.98837323892542  208.3371502255,145.9605549159034  210.0943137548,145.9319418362199  211.865255638,145.902513795233  213.64996467650002,145.8722775751232  215.4484294493,145.8412272776674  217.26063786330002,145.8093147666354  219.0865782557,145.776518960542  220.9262393949,145.742846291815  222.7796097991,145.708290151464  224.64667724150002,145.672800887539  226.52742997820002,145.636356551977  228.4218567425,145.598963190651  230.3299459304,145.56061342442302  232.251679446,145.521256145155  234.1870195189,145.48086906334  236.1359139474,145.439458724161  238.0983048844,145.397017990218  240.0741328752,145.353495181016  242.063339426,145.308867640404  244.0658664937,145.26314168486  246.081655082,145.216309578416  248.1106447144,145.168318413588  250.1527756502,145.119144969594  252.20798941709998,145.06879538632302  254.2762280732,145.017261354829  256.3574334876,144.964488706769  258.451549009,144.910453601971  260.5585193023,144.855161998491  262.6782892013,144.798605077076  264.8108029811,144.74072751094002  266.9560063941,144.681504874486  269.1138466111,144.620942882358  271.2842702505,144.559032131108  273.4672205287,144.495716184883  275.662639429,144.430970177104  277.8704691298,144.364799755603  280.0906515981,144.297195093933  282.32312799249996,144.228098688421  284.5678409968,144.157485108716  286.8247346556,144.085359763073  289.09375292469997,144.011712300092  291.374838779,143.936484202384  293.667936855,143.85964957548  295.9729934027,143.78121362829302  298.2899547272,143.70116545905802  300.6187661355,143.619445496697  302.9593746787,143.536027315121  305.3117290204,143.45091585809502  307.6757777464,143.36409965780803  310.0514682658,143.275518144516  312.43874979689997,143.185144406837  314.83757322179997,143.092983133961  317.2478892572,142.999022294869  319.6696472719,142.903200351851  322.10279849660003,142.805489918713  324.54729585710004,142.705895418588  327.0030920151,142.604404258728  329.47013811520003,142.500953974754  331.9483872364,142.395516727092  334.4377941998,142.28809666620901  336.9383134656,142.178680637133  339.4498978035,142.067205284311  341.9725019929,141.953642331487  344.5060826042,141.837995649385  347.0505957504,141.720251522965  349.6059956802,141.600345743334  352.172238736,141.478249614913  354.7492831068,141.353966721498  357.33708642740004,141.227482789763  359.9356042921,141.09873279444201  362.544794481,140.967687637387  365.16461668019997,140.834350608982  367.7950299254,140.698706880739  370.43599103409997,140.560690648464  373.0874591078,140.420272427953  375.7493952191,140.277455209937  378.421759693,140.132223614536  381.1045104565,139.984511096147  383.7976078262,139.83428780079402  386.5010141589,139.681556413808  389.2146909658,139.52630100852502  391.938597179,139.368454335541  394.6726942318,139.20798618715  397.4169456706,139.044898937949  400.1713140979,138.87917611986302  402.93575935399997,138.710749817363  405.7102438979,138.53958948486002  408.4947323783,138.365697181367  411.289188401,138.189055903517  414.0935726247,138.009597106985  416.9078484498,137.82728992103102  419.7319815478,137.642136085861  422.5659364475,137.45411807981702  425.40967454300005,137.263166782896  428.26316009849995,137.06925103329002  431.12635973069996,136.872372253467  433.9992388129,136.67251239353  436.88175939510006,136.46960176878  439.77388653239996,136.26360891903  442.6755877213,136.05453493775002  445.58682911330004,135.84236126397002  448.5075733462,135.62701769927  451.43778620029997,135.40847250935002  454.3774359839,135.18672646128  457.32648955670004,134.96176049249001  460.2849100708,134.73350392594  463.252663964,134.50192476486  466.229720293,134.26702344241  469.2160465624,134.02878039936002  472.21160637559996,133.78712451337  475.2163667686,133.54202353775  478.23029749,133.29347756867  481.25336663200005,133.04146655954  484.2855381897,132.78591897853  487.3267797421,132.52680234378  490.3770616759,132.26411641393  493.4363526162,131.99784066616002  496.5046168938,131.72790319513  499.58182257789997,131.45427129866  502.6679406428,131.17694439812  505.76294019499994,130.89590150585002  508.8667858484,130.61107037831  511.97944611289995,130.32241810871  515.100892503,130.02994378259  518.231094558,129.73362595888  521.3700171053,129.43339209363  524.5176280602,129.12920928602  527.6738956039001,128.82107702694  530.8387835347,128.50897454455  534.0122487558,128.19283035058  537.1942502426,127.87261281677  540.3847484743001,127.54832214315  543.5837006506999,127.21993778053  546.7910579429999,126.88738830544  550.0067752308,126.55064184706  553.2308104556,126.20969808945  556.4631211308,125.86453568108  559.7036641349,125.51508197992  562.9524052528,125.16130340341  566.2093162602,124.80319773651  569.4743677691,124.4407421631  572.747525471,124.07386377045  576.0287602093,123.70252934528  579.3180467646,123.32673667816  582.6153577504,122.94646244428  585.9206602732,122.56163315926  589.2339263674,122.17221502939  592.5551316187,121.77820521886  595.88424889,121.37957992986  599.2212450593,120.97626563443  602.5660920203,120.5682285989  605.9187653379,120.15546582698  609.2792377712,119.7379532508  612.6474758914001,119.31561730457  616.0234514416,118.88842422259  619.4071399145,118.45637075728  622.7985138707,118.01943253379001  626.1975394821,117.57753596247  629.6041882904,117.13064726186  633.0184357057,116.67876292855  636.4402540934,116.22185826579  639.8696092234001,115.75985965688  643.3064724196,115.2927333046  646.7508189826,114.82047545929001  650.2026210544,114.34306113017  653.6618439805001,113.86041671322  657.1284588548999,113.37250842163  660.6024408593,112.87933227086  664.0837619032,112.38086298686001  667.5723868965999,111.87702699788  671.0682866948,111.36779054003  674.5714363527,110.85314940250001  678.0818075376,110.33307804497001  681.5993647135999,109.80750295678  685.1240784878,109.27639041934  688.655923777,108.73973601247  692.1948719939,108.19751395171001  695.7408871452001,107.64965081320001  699.2939395796,107.09611293539001  702.8540040656001,106.53689569417  706.4210517496,105.97197307243  709.9950461697,105.4012717592  713.5759574077,104.82475817239  717.1637600749,104.24242749975001  720.7584250415,103.65425351021001  724.3599153671,103.06016302961001  727.9682008581,102.46012256812  731.5832559592,101.85412713304001  735.2050512542,101.24215029511001  738.8335493149,100.62411904377001  742.4687196649,100.0 "/>
</g>

<g>
	<!-- Objects showing the ego-car -->
	<rect x="-10" y="-8" rx="1" ry="1" width="20" height="16"
	style="fill:white;stroke:black;stroke-width:2;opacity:0.5"/>
    <g transform="translate(-2.5,-5),scale(1,1)">
        <g id="marker_tmp">
            <polygon points="0,0 1.5,5 0,10 10,5 " fill="black" stroke-width="1" stroke="black"/>
        </g>
    </g>

	<!-- Animation settings -->
	<!-- <animateMotion
		dur = "7.875s" repeatCount = "indefinite" rotate = "auto" calcMode="linear" keyPoints="$KEYPOINTS$" keyTimes="$KEYTIMES$">
					<mpath xlink:href = "#trajectory"></mpath>
	</animateMotion> -->
	<animateMotion
		dur = "7.875s" repeatCount = "indefinite" rotate = "auto" calcMode="linear">
					<mpath xlink:href = "#trajectory"></mpath>
	</animateMotion>
</g>

</svg>
